<svg xmlns="http://www.w3.org/2000/svg" width="573.096" height="573.096" viewBox="0 0 573.096 573.096">
    <path d="M143.348 38.249c-136.9 79-184 254.6-105.1 391.5 78.9 136.899 254.6 184 391.5 105.1 136.899-79 184-254.6 105.1-391.5-79-136.901-254.599-184.001-391.5-105.1zm243.601 74.5l-69.4 120.2c-18.6-10.7-42.1-11.8-62.1-.3l-69.3-120.2c64.299-37.101 140.699-34.301 200.8.3zM85.848 286.448h138.8c0 10.601 2.4 21.301 8.1 31.101 5.7 9.8 13.7 17.3 22.9 22.6l-69.4 120.101c-29.6-17.101-55.4-41.7-73.6-73.4-18.399-31.601-26.899-66.202-26.8-100.402zm301.101 174.2l-69.301-120.199c19.9-11.5 30.801-32.4 30.9-53.9h138.8c-.2 69.499-36.099 136.999-100.399 174.099z"/>
</svg>
