<svg xmlns="http://www.w3.org/2000/svg" width="988.6" height="988.6" viewBox="0 0 988.6 988.6">
    <path d="M556.8 602.8c-3.8-6.6-12-9.3-19-6.3-13.3 5.8-28 8.899-43.399 8.899-15.301 0-29.9-3.199-43.2-8.899-7-3-15.2-.4-19 6.3l-106 184.7c-4.3 7.399-1.5 16.899 6.1 20.8 25.7 13.2 85.3 38.9 161.2 39.3h1.799c75.3-.399 135.3-26.1 161.2-39.3 7.6-3.9 10.5-13.4 6.2-20.8L556.8 602.8zM385.5 483.8c3.6-30.6 19.7-57.8 43-75.5 6.1-4.6 7.8-13 3.9-19.5L325 205c-4.3-7.4-14-9.7-21.1-5-24.3 15.8-76.4 55-114.2 120.2-.3.5-.3.5-.4.7-.1.2-.4.7-.4.7-37.3 65.9-44.8 130.7-46.1 159.601-.4 8.6 6.4 15.699 15 15.699h213c7.4.1 13.8-5.6 14.7-13.1zM799.8 321.6s-.3-.5-.399-.7c-.101-.2-.101-.2-.4-.7C761.2 255 709.1 215.8 684.8 200c-7.2-4.7-16.8-2.4-21.1 5L556.2 388.8c-3.8 6.6-2.101 14.9 3.899 19.5 23.301 17.7 39.4 44.9 43 75.5C604 491.3 610.4 497 618 497h213c8.6 0 15.4-7.101 15-15.7-1.4-28.901-8.8-93.7-46.2-159.7zM421 496.5c.2 26.8 14.8 50.1 36.4 62.7 10.8 6.3 23.5 10 36.899 10 13.5 0 26.2-3.7 37.101-10 21.5-12.601 36-35.9 36.3-62.7v-.601c0-27.199-14.8-50.899-36.7-63.5-10.8-6.199-23.3-9.8-36.6-9.8-13.301 0-25.801 3.601-36.601 9.8-21.899 12.7-36.7 36.4-36.7 63.5-.099.201-.099.401-.099.601z"/>
    <path d="M843.8 144.8c-45.3-45.4-98.2-81-157.1-105.9C625.7 13.1 561 0 494.3 0S362.9 13.1 301.9 38.9C243 63.8 190.2 99.4 144.8 144.8c-45.4 45.4-81 98.2-105.9 157.1C13.1 362.8 0 427.6 0 494.3s13.1 131.4 38.9 192.4c24.9 58.9 60.5 111.699 105.9 157.1 45.4 45.4 98.2 81 157.101 105.9C362.9 975.5 427.6 988.6 494.3 988.6s131.4-13.1 192.4-38.899c58.899-24.9 111.8-60.5 157.1-105.9 45.4-45.4 81-98.2 105.9-157.1 25.8-61 38.899-125.7 38.899-192.4s-13.1-131.5-38.8-192.4C924.9 243 889.2 190.2 843.8 144.8zm18.5 504.9c-20.1 47.5-48.899 90.199-85.6 126.899s-79.4 65.5-126.9 85.601c-49.2 20.8-101.5 31.4-155.4 31.4-53.9 0-106.2-10.6-155.4-31.399-47.5-20.101-90.2-48.9-126.9-85.601-36.7-36.7-65.5-79.399-85.6-126.899-20.8-49.2-31.4-101.5-31.4-155.4s10.6-106.2 31.4-155.4c20.1-47.5 48.9-90.2 85.6-126.9 36.7-36.7 79.4-65.5 126.9-85.6C388.2 105.6 440.5 95 494.4 95c53.9 0 106.2 10.6 155.4 31.4 47.5 20.1 90.2 48.9 126.9 85.6 36.7 36.7 65.5 79.4 85.6 126.9 20.8 49.2 31.4 101.5 31.4 155.4s-10.6 106.2-31.4 155.4z"/>
</svg>
